<?xml version="1.0" encoding="utf-8"?>
<!-- Generator: Adobe Illustrator 25.2.3, SVG Export Plug-In . SVG Version: 6.00 Build 0)  -->
<svg version="1.2" baseProfile="tiny" id="Layer_1" xmlns="http://www.w3.org/2000/svg" xmlns:xlink="http://www.w3.org/1999/xlink"
	 x="0px" y="0px" viewBox="0 0 1400 700" overflow="visible" xml:space="preserve">
<g id="monster">
	<g id="body">
		<g>
			<rect x="155.5" y="575.5" width="99" height="99"/>
			<path d="M254,576v98h-98v-98H254 M255,575H155v100h100V575L255,575z"/>
		</g>
		<g>
			<rect x="45.5" y="575.5" width="99" height="99"/>
			<path d="M144,576v98H46v-98H144 M145,575H45v100h100V575L145,575z"/>
		</g>
		<g>
			<rect x="375.5" y="135.5" width="99" height="99"/>
			<path d="M474,136v98h-98v-98H474 M475,135H375v100h100V135L475,135z"/>
		</g>
		<g>
			<rect x="265.5" y="25.5" width="99" height="99"/>
			<path d="M364,26v98h-98V26H364 M365,25H265v100h100V25L365,25z"/>
		</g>
		<g>
			<rect x="265.5" y="135.5" width="99" height="99"/>
			<path d="M364,136v98h-98v-98H364 M365,135H265v100h100V135L365,135z"/>
		</g>
		<g>
			<rect x="265.5" y="245.5" width="99" height="99"/>
			<path d="M364,246v98h-98v-98H364 M365,245H265v100h100V245L365,245z"/>
		</g>
		<g>
			<rect x="265.5" y="355.5" width="99" height="99"/>
			<path d="M364,356v98h-98v-98H364 M365,355H265v100h100V355L365,355z"/>
		</g>
		<g>
			<rect x="265.5" y="465.5" width="99" height="99"/>
			<path d="M364,466v98h-98v-98H364 M365,465H265v100h100V465L365,465z"/>
		</g>
		<g>
			<rect x="265.5" y="575.5" width="99" height="99"/>
			<path d="M364,576v98h-98v-98H364 M365,575H265v100h100V575L365,575z"/>
		</g>
		<g>
			<rect x="375.5" y="465.5" width="99" height="99"/>
			<path d="M474,466v98h-98v-98H474 M475,465H375v100h100V465L475,465z"/>
		</g>
		<g>
			<rect x="485.5" y="465.5" width="99" height="99"/>
			<path d="M584,466v98h-98v-98H584 M585,465H485v100h100V465L585,465z"/>
		</g>
		<g>
			<rect x="485.5" y="135.5" width="99" height="99"/>
			<path d="M584,136v98h-98v-98H584 M585,135H485v100h100V135L585,135z"/>
		</g>
		<g>
			<rect x="595.5" y="135.5" width="99" height="99"/>
			<path d="M694,136v98h-98v-98H694 M695,135H595v100h100V135L695,135z"/>
		</g>
		<g>
			<rect x="705.5" y="135.5" width="99" height="99"/>
			<path d="M804,136v98h-98v-98H804 M805,135H705v100h100V135L805,135z"/>
		</g>
		<g>
			<rect x="815.5" y="135.5" width="99" height="99"/>
			<path d="M914,136v98h-98v-98H914 M915,135H815v100h100V135L915,135z"/>
		</g>
		<g>
			<rect x="925.5" y="135.5" width="99" height="99"/>
			<path d="M1024,136v98h-98v-98H1024 M1025,135H925v100h100V135L1025,135z"/>
		</g>
		<g>
			<rect x="1035.5" y="25.5" width="99" height="99"/>
			<path d="M1134,26v98h-98V26H1134 M1135,25h-100v100h100V25L1135,25z"/>
		</g>
		<g>
			<rect x="1035.5" y="135.5" width="99" height="99"/>
			<path d="M1134,136v98h-98v-98H1134 M1135,135h-100v100h100V135L1135,135z"/>
		</g>
		<g>
			<rect x="1035.5" y="245.5" width="99" height="99"/>
			<path d="M1134,246v98h-98v-98H1134 M1135,245h-100v100h100V245L1135,245z"/>
		</g>
		<g>
			<rect x="1035.5" y="355.5" width="99" height="99"/>
			<path d="M1134,356v98h-98v-98H1134 M1135,355h-100v100h100V355L1135,355z"/>
		</g>
		<g>
			<rect x="1035.5" y="465.5" width="99" height="99"/>
			<path d="M1134,466v98h-98v-98H1134 M1135,465h-100v100h100V465L1135,465z"/>
		</g>
		<g>
			<rect x="1035.5" y="575.5" width="99" height="99"/>
			<path d="M1134,576v98h-98v-98H1134 M1135,575h-100v100h100V575L1135,575z"/>
		</g>
		<g>
			<rect x="595.5" y="465.5" width="99" height="99"/>
			<path d="M694,466v98h-98v-98H694 M695,465H595v100h100V465L695,465z"/>
		</g>
		<g>
			<rect x="705.5" y="465.5" width="99" height="99"/>
			<path d="M804,466v98h-98v-98H804 M805,465H705v100h100V465L805,465z"/>
		</g>
		<g>
			<rect x="925.5" y="465.5" width="99" height="99"/>
			<path d="M1024,466v98h-98v-98H1024 M1025,465H925v100h100V465L1025,465z"/>
		</g>
		<g>
			<rect x="815.5" y="465.5" width="99" height="99"/>
			<path d="M914,466v98h-98v-98H914 M915,465H815v100h100V465L915,465z"/>
		</g>
		<g>
			<rect x="1145.5" y="575.5" width="99" height="99"/>
			<path d="M1244,576v98h-98v-98H1244 M1245,575h-100v100h100V575L1245,575z"/>
		</g>
		<g>
			<rect x="1255.5" y="575.5" width="99" height="99"/>
			<path d="M1354,576v98h-98v-98H1354 M1355,575h-100v100h100V575L1355,575z"/>
		</g>
		<g>
			<rect x="375.5" y="245.5" width="99" height="99"/>
			<path d="M474,246v98h-98v-98H474 M475,245H375v100h100V245L475,245z"/>
		</g>
		<g>
			<rect x="375.5" y="355.5" width="99" height="99"/>
			<path d="M474,356v98h-98v-98H474 M475,355H375v100h100V355L475,355z"/>
		</g>
		<g>
			<rect x="705.5" y="245.5" width="99" height="99"/>
			<path d="M804,246v98h-98v-98H804 M805,245H705v100h100V245L805,245z"/>
		</g>
		<g>
			<rect x="705.5" y="355.5" width="99" height="99"/>
			<path d="M804,356v98h-98v-98H804 M805,355H705v100h100V355L805,355z"/>
		</g>
	</g>
	<g id="left-eye">
		<rect x="595.5" y="245.5" fill="#FBDC4B" width="99" height="99"/>
		<path fill="#FBDC4B" d="M694,246v98h-98v-98H694 M695,245H595v100h100V245L695,245z"/>
	</g>
	<g id="right-eye">
		<rect x="925.5" y="245.5" fill="#FBDC4B" width="99" height="99"/>
		<path fill="#FBDC4B" d="M1024,246v98h-98v-98H1024 M1025,245H925v100h100V245L1025,245z"/>
	</g>
</g>
</svg>
